<svg width="200" height="200" viewBox="0 0 200 200" fill="none" xmlns="http://www.w3.org/2000/svg">
<path d="M152.726 32H48.045C37.526 32 29 40.524 29 51.042V148.591C29 159.109 37.526 167.634 48.045 167.634H152.727C163.246 167.634 171.771 159.109 171.771 148.591V51.042C171.77 40.524 163.245 32 152.726 32Z" fill="url(#paint0_linear_2864_164)"/>
<path d="M29.0031 135.422V148.635C29.0271 159.132 37.5431 167.633 48.0471 167.633H152.73C163.249 167.633 171.774 159.108 171.774 148.59V135.422C151.993 131.639 127.244 129.393 100.389 129.393C73.5331 129.393 48.7851 131.639 29.0031 135.422Z" fill="url(#paint1_linear_2864_164)"/>
<path d="M37.416 63.786V48.833C37.416 47.667 38.4 46.6831 39.566 46.6831H57.161C58.328 46.6831 59.312 47.667 59.312 48.833V63.786C59.312 64.952 58.328 65.936 57.161 65.936H39.566C38.4 65.936 37.416 64.952 37.416 63.786ZM63.16 63.786V48.833C63.16 47.667 64.144 46.6831 65.31 46.6831H161.204C162.37 46.6831 163.355 47.667 163.355 48.833V63.786C163.355 64.952 162.37 65.936 161.204 65.936H65.31C64.144 65.936 63.16 64.952 63.16 63.786Z" fill="#1934BF"/>
<path d="M137.072 45.555C139.894 46.653 157.992 50.004 154.629 58.881L129.682 124.723C129.131 126.176 128.032 127.375 126.638 128.048C108.7 137.15 111.626 138.305 104.382 119.574C103.747 118.16 103.645 116.484 104.241 114.906L129.189 49.065C130.384 45.911 133.919 44.329 137.072 45.555ZM142.908 65.898L145.873 58.071L136.256 54.332L133.326 62.067L142.908 65.898ZM112.488 117.063L115.297 124.301L122.08 120.865L139.863 73.933L130.277 70.111L112.488 117.063ZM106.718 89.889H51.391V81.285H109.726L106.718 89.889ZM130.756 145.588H51.392V136.984H130.756V145.588ZM96.892 127.202H51.391V118.597H96.892V127.202ZM96.892 108.745H51.391V100.14H96.892V108.745Z" fill="#58D5FE"/>
<defs>
<linearGradient id="paint0_linear_2864_164" x1="26.8155" y1="119.702" x2="173.965" y2="79.9316" gradientUnits="userSpaceOnUse">
<stop stop-color="#00DBDB"/>
<stop offset="0.7216" stop-color="#3647D3"/>
<stop offset="1" stop-color="#3647D3"/>
</linearGradient>
<linearGradient id="paint1_linear_2864_164" x1="27.9506" y1="144.87" x2="172.647" y2="154.661" gradientUnits="userSpaceOnUse">
<stop stop-color="#1B2BBB"/>
<stop offset="1" stop-color="#078DDD"/>
</linearGradient>
</defs>
</svg>
